<?xml version="1.0" encoding="UTF-8"?>
<svg width="310px" height="41px" viewBox="0 0 310 41" version="1.1" xmlns="http://www.w3.org/2000/svg" xmlns:xlink="http://www.w3.org/1999/xlink">
    <!-- Generator: Sketch 52.6 (67491) - http://www.bohemiancoding.com/sketch -->
    <title>Group 2</title>
    <desc>Created with Sketch.</desc>
    <g id="Page-1" stroke="none" stroke-width="1" fill="none" fill-rule="evenodd">
        <g id="Group-2" fill="#FFFFFF">
            <path d="M100.214,34 L100.214,6.115 L117.686,6.115 L117.686,11.965 L107.039,11.965 L107.039,17.035 L115.541,17.035 L115.541,22.885 L107.039,22.885 L107.039,28.15 L118.232,28.15 L118.232,34 L100.214,34 Z M119.987,34 L128.45,20.155 L119.948,6.115 L127.709,6.115 L130.751,11.848 C131.687,13.603 132.467,15.436 132.467,15.436 L132.545,15.436 C132.545,15.436 133.286,13.642 134.261,11.848 L137.342,6.115 L145.103,6.115 L136.562,20.155 L145.064,34 L137.459,34 L134.261,28.15 C133.286,26.395 132.545,24.679 132.545,24.679 L132.467,24.679 C132.467,24.679 131.726,26.395 130.751,28.15 L127.553,34 L119.987,34 Z M148.301,34 L148.301,6.115 L159.884,6.115 C165.305,6.115 168.971,10.093 168.971,15.709 C168.971,21.325 165.305,25.381 159.884,25.381 L155.126,25.381 L155.126,34 L148.301,34 Z M155.126,19.531 L158.48,19.531 C160.859,19.531 162.029,17.932 162.029,15.709 C162.029,13.486 160.859,11.965 158.597,11.965 L155.126,11.965 L155.126,19.531 Z M172.832,34 L172.832,6.115 L179.657,6.115 L179.657,28.15 L191.045,28.15 L191.045,34 L172.832,34 Z M192.839,19.882 C192.839,11.887 198.767,5.647 207.425,5.647 C216.083,5.647 222.011,11.887 222.011,19.882 C222.011,28.072 216.083,34.468 207.425,34.468 C198.767,34.468 192.839,28.072 192.839,19.882 Z M199.898,19.882 C199.898,24.64 203.018,28.228 207.425,28.228 C211.832,28.228 214.952,24.64 214.952,19.882 C214.952,15.319 211.832,11.887 207.425,11.887 C203.018,11.887 199.898,15.319 199.898,19.882 Z M226.34,34 L226.34,6.115 L236.051,6.115 C238.898,6.115 240.263,6.31 241.472,6.778 C244.631,7.987 246.62,10.834 246.62,14.89 C246.62,17.854 245.216,21.091 242.447,22.495 L242.447,22.573 C242.447,22.573 242.837,23.08 243.5,24.25 L248.921,34 L241.316,34 L236.363,24.601 L233.165,24.601 L233.165,34 L226.34,34 Z M233.165,18.751 L236.129,18.751 C238.313,18.751 239.678,17.542 239.678,15.319 C239.678,13.915 239.327,12.862 238.04,12.355 C237.416,12.082 236.597,11.965 235.466,11.965 L233.165,11.965 L233.165,18.751 Z M251.69,23.743 L251.69,6.115 L258.515,6.115 L258.515,23.743 C258.515,26.668 260.426,28.228 263.351,28.228 C266.276,28.228 268.187,26.668 268.187,23.743 L268.187,6.115 L275.012,6.115 L275.012,23.743 C275.012,30.022 270.41,34.468 263.39,34.468 C256.292,34.468 251.69,30.022 251.69,23.743 Z M279.458,34 L281.759,6.115 L289.169,6.115 L293.225,17.893 C293.849,19.687 294.629,22.495 294.629,22.495 L294.707,22.495 C294.707,22.495 295.487,19.687 296.111,17.893 L300.167,6.115 L307.577,6.115 L309.839,34 L303.014,34 L302.156,21.442 C302,19.336 302.156,16.762 302.156,16.762 L302.078,16.762 C302.078,16.762 301.142,19.687 300.518,21.442 L297.593,29.515 L291.743,29.515 L288.818,21.442 C288.194,19.687 287.258,16.762 287.258,16.762 L287.18,16.762 C287.18,16.762 287.336,19.336 287.18,21.442 L286.322,34 L279.458,34 Z" id="EXPLORUM"></path>
            <g id="noun_Eye_1053310" fill-rule="nonzero">
                <path d="M41,0 C24.6105317,0 9.97406698,7.35939661 0.599525065,18.8288043 C-0.199841688,19.8057076 -0.199841688,21.1942924 0.599525065,22.1711957 C9.97406698,33.6406025 24.6105317,41 41,41 C57.3894683,41 72.025933,33.6406025 81.4004749,22.1711957 C82.1998417,21.1942924 82.1998417,19.8057076 81.4004749,18.8288043 C72.025933,7.35939661 57.3894683,0 41,0 Z M41,6.23913043 C49.0831362,6.23913043 55.5771974,12.5922676 55.5771974,20.5 C55.5771974,28.4077324 49.0831362,34.7608696 41,34.7608696 C32.9168638,34.7608696 26.4228026,28.4077324 26.4228026,20.5 C26.4228026,12.5922676 32.9168638,6.23913043 41,6.23913043 Z M25.6825543,7.88247283 C22.7345693,11.2978548 20.9563535,15.6985363 20.9563535,20.5 C20.9563535,25.3014637 22.7345693,29.7021452 25.6825543,33.1175272 C18.1447274,30.5471035 11.5322974,26.15217 6.40762717,20.5 C11.5322974,14.8478291 18.1447274,10.4528965 25.6825543,7.88247283 Z M56.3174457,7.88247283 C63.8552726,10.4528965 70.4677026,14.8478291 75.5923728,20.5 C70.4677026,26.15217 63.8552726,30.5471035 56.3174457,33.1175272 C59.2654297,29.7021452 61.0436465,25.3014637 61.0436465,20.5 C61.0436465,15.6985363 59.2654297,11.2978548 56.3174457,7.88247283 Z M41,10.6956522 C35.4974742,10.6956522 30.9781768,15.11688 30.9781768,20.5 C30.9781768,25.88312 35.4974742,30.3043478 41,30.3043478 C46.5025258,30.3043478 51.0218232,25.88312 51.0218232,20.5 C51.0218232,15.11688 46.5025258,10.6956522 41,10.6956522 Z M41,16.0434783 C43.5482381,16.0434783 45.5553742,18.0070592 45.5553742,20.5 C45.5553742,22.9929408 43.5482381,24.9565217 41,24.9565217 C38.4517619,24.9565217 36.4446258,22.9929408 36.4446258,20.5 C36.4446258,18.0070592 38.4517619,16.0434783 41,16.0434783 Z" id="Shape"></path>
            </g>
        </g>
    </g>
</svg>