<?xml version="1.0" encoding="UTF-8"?>
<svg width="158px" height="209px" viewBox="0 0 158 209" version="1.1" xmlns="http://www.w3.org/2000/svg" xmlns:xlink="http://www.w3.org/1999/xlink">
    <!-- Generator: Sketch 52.6 (67491) - http://www.bohemiancoding.com/sketch -->
    <title>Slice 1</title>
    <desc>Created with Sketch.</desc>
    <g id="Page-1" stroke="none" stroke-width="1" fill="none" fill-rule="evenodd">
        <g id="noun_PDF_117327" fill="#FFFFFF" fill-rule="nonzero">
            <path d="M126.955601,136.35584 C124.544425,137.106926 121.005974,137.191831 117.209918,136.610556 C113.137711,135.98574 108.98307,134.670795 104.900558,132.733211 C112.181484,131.614202 117.830229,131.958178 122.660823,133.767315 C123.806647,134.196196 125.686127,135.34133 126.955601,136.35584 Z M86.3324464,129.299986 C86.0356863,129.384892 85.7451088,129.465443 85.4545312,129.550348 C83.4946784,130.114207 81.5884072,130.662826 79.7522043,131.152665 L77.2750822,131.816669 C72.2919862,133.14903 67.1976053,134.509693 62.1671101,136.129426 C64.0795638,131.257164 65.8560025,126.332653 67.5953462,121.516995 C68.8833672,117.953146 70.1981792,114.310924 71.5583294,110.716597 C72.2487087,111.920511 72.9679397,113.124426 73.7180832,114.332694 C77.1308238,119.825418 81.4214796,124.904501 86.3324464,129.299986 Z M73.658319,74.3662149 C73.9818699,80.3770794 72.753613,86.1593525 70.9524443,91.7065031 C68.7349872,84.8465849 67.7004487,77.2725909 70.4743309,71.1572275 C71.1853185,69.5897439 71.7685345,68.7515755 72.145667,68.3139863 C72.728883,69.2675389 73.497574,71.3967042 73.658319,74.3662149 Z M47.6464757,150.511088 C46.3996713,152.866668 45.1281369,155.07203 43.8236292,157.1533 C40.6767361,162.162717 35.5308342,167.526995 32.8867846,167.526995 C32.6271195,167.526995 32.311812,167.483453 31.852246,166.969667 C31.555486,166.640931 31.5080868,166.405808 31.5225127,166.08578 C31.6111285,164.243987 33.9213231,160.963157 37.2681171,157.921803 C40.305786,155.16129 43.739135,152.70992 47.6464757,150.511088 Z M135.376167,136.61491 C134.972244,130.479953 125.195649,126.543828 125.09879,126.506818 C121.319221,125.091728 117.21404,124.403777 112.548312,124.403777 C107.552851,124.403777 102.167893,125.167925 95.2517348,126.874741 C89.0980853,122.265903 83.7811342,116.496693 79.8099077,110.109197 C78.0561382,107.287726 76.4796004,104.47061 75.1050243,101.718805 C78.4600616,93.2435079 81.4812438,84.130332 80.933062,73.9242716 C80.4899828,65.7407006 76.9968696,60.2436225 72.2466479,60.2436225 C68.9884698,60.2436225 66.1816142,62.7929605 63.9002713,67.8285018 C59.8301247,76.8023458 60.8996974,88.2841637 67.0780769,101.984406 C64.8523765,107.505432 62.7853603,113.228925 60.7842907,118.771721 C58.2948036,125.662118 55.7290656,132.770221 52.8377159,139.532172 C44.7283352,142.921855 38.0677206,147.032145 32.5158345,152.078572 C28.878463,155.378996 24.4950697,160.423246 24.2436479,165.689555 C24.1220587,168.169227 24.9257839,170.444256 26.5620859,172.266456 C28.2993687,174.201862 30.4838525,175.220727 32.8847237,175.222904 C40.8148119,175.222904 48.4460792,163.712784 49.8927845,161.4051 C52.8068034,156.765784 55.5332864,151.590911 58.2061877,145.62141 C64.9368707,143.052479 72.1106329,141.134488 79.061825,139.279633 L81.5513122,138.611275 C83.4225492,138.108374 85.3679762,137.553223 87.3628633,136.976302 C89.4752178,136.373257 91.6473366,135.74844 93.8544895,135.154103 C100.993218,139.950167 108.669823,143.078603 116.156832,144.225914 C122.462983,145.194706 128.064329,144.633025 131.854203,142.545223 C135.266943,140.668597 135.45654,137.773107 135.376167,136.61491 Z M150.7335,189.369444 C150.7335,200.605254 141.358768,201.297559 139.466922,201.321507 L18.5227735,201.321507 C7.9259665,201.321507 7.28710805,191.350569 7.26649971,189.369444 L7.26649971,19.6305559 C7.26649971,8.38386058 16.657719,7.7024406 18.5227735,7.67849293 L100.224527,7.67849293 L100.267804,7.72421121 L100.267804,41.4055166 C100.267804,48.1652899 104.135989,60.9620525 118.786456,60.9620525 L150.46147,60.9620525 L150.7335,61.2494245 L150.7335,189.369444 Z M143.223822,53.2835595 L118.788517,53.2835595 C108.193771,53.2835595 107.552851,43.3670483 107.538425,41.4055166 L107.538425,15.4310059 L143.223822,53.2835595 Z M158,189.369444 L158,58.0796242 L107.538425,4.55005677 L107.538425,4.30187186 L107.297308,4.30187186 L103.245709,0 L18.5227735,0 C12.1156415,0 0,4.10375934 0,19.6305559 L0,189.371621 C0,196.159696 3.87230657,209 18.5227735,209 L139.479287,209 C145.884359,208.997823 158,204.896241 158,189.369444 Z" id="Shape"></path>
        </g>
    </g>
</svg>